<?xml version="1.0" encoding="UTF-8"?>
<!DOCTYPE svg PUBLIC "-//W3C//DTD SVG 1.1//EN" "http://www.w3.org/Graphics/SVG/1.1/DTD/svg11.dtd">
<!-- Creator: CorelDRAW 2018 (64 Bit) -->
<svg xmlns="http://www.w3.org/2000/svg" xml:space="preserve" width="40px" height="40px" version="1.1" style="shape-rendering:geometricPrecision; text-rendering:geometricPrecision; image-rendering:optimizeQuality; fill-rule:evenodd; clip-rule:evenodd"
viewBox="0 0 40 40"
 xmlns:xlink="http://www.w3.org/1999/xlink">
 <defs>
  <style type="text/css">
   <![CDATA[
    .fil0 {fill:#FFD823}
    .fil1 {fill:#1D3E69}
   ]]>
  </style>
 </defs>
 <g id="LOGO">
  <metadata id="CorelCorpID_0Corel-Layer"/>
  <circle class="fil0" cx="20" cy="20" r="20"/>
  <g id="_2230437750736">
   <circle class="fil1" cx="20" cy="20" r="18"/>
   <g>
    <path class="fil0" d="M10.61 13.26c0.1,0.12 0.18,0.16 0.29,0.27l1.16 1.08c0.12,0.12 0.16,0.18 0.28,0.28l3.5 3.26c0.1,0.09 0.19,0.17 0.29,0.26l1.47 1.37c0.18,0.2 0.39,0.32 0.58,0.53 0.29,0.33 1.48,1.31 1.76,1.68 0.23,-0.06 0.19,-0.1 0.34,-0.26 0.09,-0.09 0.19,-0.17 0.29,-0.26l1.76 -1.64c0.91,-0.79 2.03,-1.93 2.93,-2.72l1.48 -1.36c0.49,-0.46 0.96,-0.95 1.47,-1.39 0.28,-0.24 0.94,-0.83 1.17,-1.1 -0.28,-0.32 -1.23,-0.64 -1.78,-0.71 -0.67,-0.08 -11.16,-0.02 -12.65,-0.02 -1.58,0 -3.27,-0.18 -4.34,0.73z"/>
    <path class="fil0" d="M27.19 27.49c0.43,0 0.87,-0.08 1.25,-0.23 0.67,-0.25 0.58,-0.3 0.95,-0.48l-3.55 -3.34c-0.14,-0.14 -0.26,-0.21 -0.4,-0.37l-0.78 -0.74c-0.21,-0.17 -1.43,-1.34 -1.61,-1.43 -0.1,0.17 -0.96,0.9 -1.16,1.09 -0.14,0.13 -0.22,0.22 -0.36,0.35l-1.52 1.4c-0.32,-0.19 -0.85,-0.79 -1.17,-1.07l-1.94 -1.76c-0.15,0.08 -0.25,0.24 -0.39,0.36l-5.91 5.44c0.23,0.42 1.6,0.78 2.22,0.78l14.37 0z"/>
    <path class="fil0" d="M8.93 16.45l0 7.09c0,0.69 0.33,1.93 0.75,2.29 0.23,-0.16 0.89,-0.82 1.17,-1.08l2.74 -2.53c0.14,-0.12 0.24,-0.25 0.39,-0.37 0.15,-0.14 0.24,-0.21 0.39,-0.37 0.13,-0.14 0.25,-0.21 0.38,-0.35l1.19 -1.12c-0.07,-0.15 -0.2,-0.21 -0.37,-0.36 -0.15,-0.13 -0.24,-0.25 -0.39,-0.38l-1.57 -1.44c-0.17,-0.17 -0.23,-0.23 -0.4,-0.37l-0.77 -0.71c-0.16,-0.16 -0.23,-0.24 -0.39,-0.38l-2.37 -2.18c-0.42,0.45 -0.75,1.45 -0.75,2.26z"/>
    <path class="fil0" d="M24.05 20.02l1.16 1.08c0.35,0.38 1.68,1.5 1.97,1.81 0.13,0.16 0.23,0.23 0.37,0.35l0.78 0.75c0.13,0.14 0.27,0.23 0.41,0.36 0.22,0.2 1.44,1.39 1.6,1.47 0.46,-0.85 0.73,-1.26 0.73,-2.43l0 -6.79c0,-0.49 -0.06,-0.97 -0.2,-1.39 -0.16,-0.45 -0.36,-0.71 -0.52,-1.05 -0.24,0.11 -3.41,3.17 -3.93,3.62l-2.37 2.22z"/>
   </g>
  </g>
 </g>
</svg>
