<?xml version="1.0" encoding="UTF-8"?>
<!DOCTYPE svg PUBLIC "-//W3C//DTD SVG 1.1//EN" "http://www.w3.org/Graphics/SVG/1.1/DTD/svg11.dtd">
<!-- Creator: CorelDRAW 2018 (64 Bit) -->
<svg xmlns="http://www.w3.org/2000/svg" xml:space="preserve" width="200px" height="200px" version="1.1" style="shape-rendering:geometricPrecision; text-rendering:geometricPrecision; image-rendering:optimizeQuality; fill-rule:evenodd; clip-rule:evenodd"
viewBox="0 0 139.04 139.04"
 xmlns:xlink="http://www.w3.org/1999/xlink">
 <defs>
  <style type="text/css">
   <![CDATA[
    .fil0 {fill:#FFD823}
    .fil1 {fill:#1D3E69}
    .fil2 {fill:#FFD823;fill-rule:nonzero}
   ]]>
  </style>
 </defs>
 <g id="LOGO">
  <metadata id="CorelCorpID_0Corel-Layer"/>
  <polygon class="fil0" points="139.04,0 139.04,139.04 0,139.04 0,0 "/>
  <polygon class="fil1" points="125.14,13.9 125.14,125.14 13.9,125.14 13.9,13.9 "/>
  <path class="fil2" d="M42.22 108.98c0,-0.09 0.02,-0.15 0.07,-0.2 0.04,-0.05 0.11,-0.08 0.19,-0.08l3.96 0c0.35,0 0.68,0.07 0.99,0.2 0.31,0.14 0.58,0.32 0.81,0.55 0.23,0.23 0.42,0.51 0.55,0.82 0.14,0.31 0.21,0.64 0.21,1 0,0.3 -0.05,0.58 -0.14,0.83 -0.1,0.26 -0.23,0.49 -0.4,0.69 0.29,0.26 0.51,0.58 0.69,0.94 0.17,0.36 0.25,0.74 0.25,1.15 0,0.36 -0.07,0.7 -0.21,1.03 -0.14,0.32 -0.32,0.61 -0.56,0.85 -0.24,0.24 -0.51,0.44 -0.83,0.58 -0.32,0.14 -0.65,0.22 -1,0.22l-4.32 0c-0.08,0 -0.14,-0.03 -0.19,-0.07 -0.05,-0.04 -0.07,-0.1 -0.07,-0.19l0 -8.32zm4.81 5.82c0,-0.12 -0.02,-0.24 -0.07,-0.36 -0.04,-0.12 -0.11,-0.23 -0.19,-0.32 -0.08,-0.09 -0.18,-0.17 -0.29,-0.23 -0.12,-0.06 -0.24,-0.09 -0.37,-0.09l-1.58 0 0 1.99 1.58 0c0.13,0 0.25,-0.03 0.36,-0.08 0.12,-0.06 0.21,-0.13 0.3,-0.23 0.08,-0.09 0.15,-0.19 0.19,-0.31 0.05,-0.12 0.07,-0.25 0.07,-0.37zm-0.32 -3.47c0,-0.12 -0.02,-0.23 -0.07,-0.33 -0.04,-0.11 -0.1,-0.2 -0.18,-0.28 -0.08,-0.08 -0.18,-0.14 -0.29,-0.19 -0.11,-0.04 -0.23,-0.06 -0.36,-0.06l-1.28 0 0 1.72 1.26 0c0.13,0 0.26,-0.02 0.37,-0.06 0.12,-0.04 0.21,-0.1 0.29,-0.18 0.08,-0.08 0.14,-0.17 0.19,-0.27 0.05,-0.11 0.07,-0.22 0.07,-0.35zm3.1 -2.35c0,-0.09 0.02,-0.15 0.07,-0.2 0.04,-0.05 0.1,-0.08 0.19,-0.08l3.85 0c0.41,0 0.79,0.08 1.15,0.23 0.36,0.16 0.67,0.36 0.94,0.62 0.26,0.27 0.47,0.57 0.63,0.93 0.15,0.35 0.22,0.72 0.22,1.12 0,0.27 -0.03,0.53 -0.11,0.77 -0.07,0.25 -0.17,0.48 -0.3,0.69 -0.13,0.21 -0.29,0.4 -0.47,0.58 -0.18,0.17 -0.38,0.32 -0.59,0.44l1.53 2.89c0.03,0.05 0.07,0.12 0.11,0.19 0.04,0.08 0.07,0.14 0.07,0.2 0,0.06 -0.02,0.11 -0.07,0.14 -0.04,0.04 -0.09,0.06 -0.17,0.06l-2.05 0c-0.06,0 -0.12,-0.02 -0.18,-0.06 -0.05,-0.04 -0.09,-0.1 -0.1,-0.16l-1.45 -2.73 -0.96 0 0 2.69c0,0.17 -0.09,0.26 -0.27,0.26l-1.78 0c-0.08,0 -0.14,-0.03 -0.19,-0.07 -0.05,-0.04 -0.07,-0.1 -0.07,-0.19l0 -8.32zm4.66 2.65c0,-0.12 -0.02,-0.24 -0.07,-0.36 -0.04,-0.12 -0.1,-0.23 -0.18,-0.33 -0.08,-0.1 -0.17,-0.18 -0.29,-0.25 -0.1,-0.06 -0.23,-0.11 -0.36,-0.13 -0.11,-0.01 -0.22,-0.01 -0.31,-0.02 -0.1,-0.01 -0.21,-0.01 -0.32,-0.01l-0.82 0 0 2.19 1.09 0c0.07,0 0.14,0 0.19,-0.01 0.06,0 0.12,-0.01 0.19,-0.02 0.13,-0.01 0.26,-0.05 0.37,-0.12 0.11,-0.06 0.2,-0.15 0.28,-0.24 0.07,-0.1 0.13,-0.21 0.17,-0.33 0.04,-0.12 0.06,-0.25 0.06,-0.37zm3.37 -2.67c0.01,-0.07 0.03,-0.13 0.08,-0.18 0.05,-0.05 0.12,-0.08 0.2,-0.08l2.07 0c0.14,0 0.24,0.08 0.28,0.23l1.62 5.41 1.63 -5.41c0.06,-0.15 0.16,-0.23 0.31,-0.23l2.04 0c0.07,0 0.13,0.03 0.19,0.08 0.06,0.05 0.09,0.11 0.1,0.18 0.14,1.4 0.28,2.79 0.42,4.17 0.15,1.38 0.29,2.76 0.43,4.16l0 0.03c0,0.16 -0.09,0.24 -0.26,0.24l-1.69 0c-0.18,0 -0.28,-0.09 -0.28,-0.27l-0.52 -4.61 -1.34 4.64c-0.01,0.04 -0.04,0.08 -0.09,0.14 -0.05,0.06 -0.1,0.08 -0.15,0.08l-1.56 0c-0.05,0 -0.1,-0.02 -0.15,-0.08 -0.06,-0.05 -0.09,-0.1 -0.09,-0.14l-1.34 -4.62 -0.52 4.59c-0.01,0.18 -0.11,0.27 -0.29,0.27l-1.69 0c-0.17,0 -0.25,-0.09 -0.25,-0.27l0.85 -8.33zm12.65 -0.03c0,-0.02 0.02,-0.04 0.04,-0.07 0.02,-0.03 0.05,-0.06 0.08,-0.08 0.03,-0.02 0.06,-0.04 0.1,-0.06 0.04,-0.01 0.07,-0.02 0.1,-0.02l1.53 0c0.06,0 0.12,0.02 0.17,0.06 0.05,0.05 0.08,0.08 0.11,0.12l0.14 0.33 3.13 8.08c0.03,0.08 0.03,0.14 -0.02,0.19 -0.04,0.05 -0.11,0.08 -0.22,0.08l-1.71 0c-0.09,0 -0.16,-0.02 -0.21,-0.06 -0.05,-0.03 -0.09,-0.09 -0.12,-0.16 -0.08,-0.21 -0.16,-0.41 -0.23,-0.61 -0.08,-0.2 -0.15,-0.4 -0.23,-0.6l-3.16 0c-0.08,0.2 -0.15,0.4 -0.23,0.6 -0.08,0.2 -0.15,0.4 -0.23,0.61 -0.05,0.14 -0.15,0.22 -0.3,0.22l-1.76 0c-0.08,0 -0.14,-0.02 -0.19,-0.06 -0.05,-0.04 -0.06,-0.1 -0.03,-0.18l3.24 -8.39zm1.08 2.55c-0.07,0.21 -0.15,0.43 -0.22,0.66 -0.08,0.23 -0.16,0.47 -0.24,0.71 -0.07,0.24 -0.15,0.47 -0.22,0.7 -0.08,0.24 -0.16,0.45 -0.23,0.66l1.82 0 -0.91 -2.73zm4.56 -2.5c0,-0.09 0.03,-0.15 0.07,-0.2 0.04,-0.05 0.11,-0.08 0.2,-0.08l3.81 0c0.27,0 0.53,0.04 0.77,0.12 0.24,0.07 0.47,0.18 0.67,0.31 0.2,0.13 0.39,0.29 0.55,0.48 0.16,0.18 0.3,0.38 0.41,0.6 0.12,0.21 0.2,0.44 0.26,0.68 0.06,0.23 0.09,0.47 0.09,0.71 0,0.36 -0.06,0.71 -0.19,1.05 -0.13,0.35 -0.31,0.65 -0.55,0.92 -0.24,0.26 -0.53,0.48 -0.86,0.65 -0.33,0.16 -0.7,0.25 -1.11,0.25l-1.8 0 0 2.83c0,0.17 -0.1,0.26 -0.28,0.26l-1.77 0c-0.08,0 -0.15,-0.03 -0.19,-0.07 -0.05,-0.04 -0.08,-0.1 -0.08,-0.19l0 -8.32zm4.5 2.61c0,-0.12 -0.02,-0.24 -0.07,-0.36 -0.04,-0.11 -0.1,-0.22 -0.18,-0.32 -0.08,-0.09 -0.17,-0.16 -0.29,-0.22 -0.11,-0.06 -0.24,-0.09 -0.38,-0.09l-1.26 0 0 1.99 1.26 0c0.14,0 0.27,-0.03 0.39,-0.09 0.11,-0.06 0.21,-0.13 0.29,-0.22 0.07,-0.09 0.13,-0.2 0.17,-0.32 0.05,-0.12 0.07,-0.24 0.07,-0.37zm4.43 -2.66c0,-0.02 0.01,-0.04 0.04,-0.07 0.02,-0.03 0.04,-0.06 0.07,-0.08 0.04,-0.02 0.07,-0.04 0.11,-0.06 0.03,-0.01 0.07,-0.02 0.1,-0.02l1.52 0c0.07,0 0.13,0.02 0.18,0.06 0.04,0.05 0.08,0.08 0.1,0.12l0.15 0.33 3.13 8.08c0.03,0.08 0.03,0.14 -0.02,0.19 -0.04,0.05 -0.12,0.08 -0.23,0.08l-1.7 0c-0.1,0 -0.17,-0.02 -0.22,-0.06 -0.05,-0.03 -0.08,-0.09 -0.11,-0.16 -0.08,-0.21 -0.16,-0.41 -0.23,-0.61 -0.08,-0.2 -0.16,-0.4 -0.23,-0.6l-3.16 0c-0.08,0.2 -0.16,0.4 -0.23,0.6 -0.08,0.2 -0.16,0.4 -0.23,0.61 -0.06,0.14 -0.16,0.22 -0.31,0.22l-1.75 0c-0.08,0 -0.14,-0.02 -0.19,-0.06 -0.05,-0.04 -0.06,-0.1 -0.03,-0.18l3.24 -8.39zm1.08 2.55c-0.08,0.21 -0.15,0.43 -0.23,0.66 -0.08,0.23 -0.15,0.47 -0.23,0.71 -0.07,0.24 -0.15,0.47 -0.23,0.7 -0.07,0.24 -0.15,0.45 -0.23,0.66l1.83 0 -0.91 -2.73zm5.4 3.22c0.07,0.05 0.16,0.13 0.26,0.22 0.11,0.09 0.23,0.19 0.36,0.28 0.2,0.13 0.4,0.24 0.6,0.31 0.2,0.08 0.41,0.12 0.63,0.12 0.2,0 0.37,-0.03 0.51,-0.07 0.13,-0.05 0.24,-0.11 0.32,-0.18 0.08,-0.08 0.14,-0.17 0.17,-0.27 0.04,-0.1 0.05,-0.2 0.05,-0.31 0,-0.13 -0.04,-0.24 -0.14,-0.33 -0.09,-0.1 -0.21,-0.19 -0.34,-0.26 -0.14,-0.08 -0.28,-0.14 -0.42,-0.2 -0.15,-0.05 -0.28,-0.09 -0.39,-0.13 -0.47,-0.17 -0.89,-0.35 -1.25,-0.54 -0.35,-0.19 -0.65,-0.41 -0.89,-0.64 -0.24,-0.24 -0.42,-0.5 -0.54,-0.78 -0.12,-0.29 -0.17,-0.6 -0.17,-0.95 0,-0.37 0.07,-0.71 0.22,-1.01 0.15,-0.3 0.36,-0.56 0.64,-0.77 0.28,-0.22 0.61,-0.39 1,-0.5 0.39,-0.12 0.82,-0.18 1.3,-0.18 0.37,0 0.71,0.04 1.05,0.12 0.33,0.08 0.65,0.22 0.97,0.39 0.14,0.08 0.27,0.17 0.39,0.25 0.12,0.09 0.23,0.17 0.32,0.25 0.09,0.08 0.16,0.15 0.22,0.23 0.05,0.07 0.08,0.13 0.08,0.18 0,0.05 -0.02,0.1 -0.04,0.14 -0.03,0.05 -0.07,0.1 -0.12,0.15l-0.91 0.97c-0.07,0.07 -0.14,0.1 -0.2,0.1 -0.06,0 -0.11,-0.01 -0.15,-0.04 -0.05,-0.04 -0.1,-0.07 -0.16,-0.12l-0.05 -0.05c-0.08,-0.07 -0.17,-0.14 -0.27,-0.21 -0.09,-0.07 -0.2,-0.14 -0.31,-0.19 -0.11,-0.06 -0.23,-0.11 -0.35,-0.15 -0.12,-0.03 -0.25,-0.05 -0.38,-0.05 -0.13,0 -0.25,0.01 -0.37,0.03 -0.11,0.02 -0.21,0.06 -0.3,0.1 -0.09,0.05 -0.16,0.12 -0.21,0.19 -0.05,0.08 -0.07,0.17 -0.07,0.29 0,0.11 0.02,0.2 0.08,0.29 0.05,0.08 0.14,0.15 0.25,0.22 0.11,0.07 0.25,0.14 0.41,0.2 0.17,0.06 0.36,0.13 0.58,0.2 0.42,0.14 0.81,0.29 1.16,0.44 0.36,0.15 0.66,0.33 0.92,0.54 0.26,0.21 0.46,0.46 0.61,0.75 0.14,0.29 0.22,0.64 0.22,1.06 0,0.43 -0.09,0.83 -0.27,1.19 -0.18,0.35 -0.43,0.66 -0.74,0.91 -0.31,0.25 -0.68,0.44 -1.1,0.58 -0.42,0.14 -0.88,0.2 -1.36,0.2 -0.46,0 -0.91,-0.08 -1.35,-0.24 -0.44,-0.16 -0.85,-0.38 -1.23,-0.66 -0.16,-0.12 -0.29,-0.23 -0.4,-0.34 -0.11,-0.11 -0.2,-0.2 -0.26,-0.27l-0.02 -0.02c-0.01,-0.01 -0.01,-0.01 -0.01,-0.01 -0.01,-0.01 -0.01,-0.01 -0.01,-0.01 -0.01,-0.01 -0.01,-0.02 -0.02,-0.02 0,0 0,0 -0.01,-0.01 -0.09,-0.1 -0.14,-0.18 -0.14,-0.24 0,-0.07 0.05,-0.14 0.14,-0.22l1.03 -0.99c0.09,-0.06 0.15,-0.09 0.2,-0.09 0.04,0 0.08,0.01 0.12,0.04 0.04,0.02 0.08,0.06 0.14,0.11z"/>
  <polygon class="fil0" points="96.83,103.65 69.52,90 42.22,103.65 69.52,35.39 "/>
 </g>
</svg>
