<?xml version="1.0" encoding="UTF-8"?>
<!DOCTYPE svg PUBLIC "-//W3C//DTD SVG 1.1//EN" "http://www.w3.org/Graphics/SVG/1.1/DTD/svg11.dtd">
<!-- Creator: CorelDRAW 2018 (64 Bit) -->
<svg xmlns="http://www.w3.org/2000/svg" xml:space="preserve" width="40px" height="40px" version="1.1" style="shape-rendering:geometricPrecision; text-rendering:geometricPrecision; image-rendering:optimizeQuality; fill-rule:evenodd; clip-rule:evenodd"
viewBox="0 0 40 40"
 xmlns:xlink="http://www.w3.org/1999/xlink">
 <defs>
  <style type="text/css">
   <![CDATA[
    .fil0 {fill:#FFD823}
    .fil1 {fill:#1D3E69}
   ]]>
  </style>
 </defs>
 <g id="LOGO">
  <metadata id="CorelCorpID_0Corel-Layer"/>
  <circle class="fil0" cx="20" cy="20" r="20"/>
  <g id="_2230302487408">
   <circle class="fil1" cx="20" cy="20" r="18"/>
   <path class="fil0" d="M15.08 8.35c-1.17,0.15 -2.11,1.32 -2.86,2.12 -0.08,0.08 -0.1,0.11 -0.16,0.2 -0.06,0.08 -0.09,0.11 -0.16,0.21 -0.79,1.13 -1.36,2.63 -1.28,4.41 0.14,3.29 2.09,6.76 3.56,9.26 0.27,0.46 1.07,1.67 1.41,2.12 0.13,0.15 0.22,0.26 0.31,0.41 0.36,0.56 1.88,2.24 2.37,2.6 0.14,0.1 0.26,0.22 0.4,0.33 1.05,0.79 2.31,1.53 4.06,1.64 0.91,0.05 1.74,-0.08 2.58,-0.29 0.81,-0.21 2.47,-0.75 2.56,-1.74 0.06,-0.68 -0.8,-1.65 -1.22,-2.3 -0.25,-0.4 -0.72,-0.92 -0.93,-1.22l-0.48 -0.58c-1.43,-1.65 -1.62,-1.4 -3.47,0.38 -0.76,0.73 -1.39,0.1 -1.81,-0.36 -0.47,-0.52 -0.86,-0.92 -1.31,-1.53 -0.11,-0.15 -0.19,-0.27 -0.28,-0.41 -0.35,-0.5 -0.5,-0.69 -0.86,-1.29 -0.68,-1.1 -1.39,-2.44 -1.91,-3.79 -0.18,-0.46 -0.64,-1.73 -0.54,-2.25 0.2,-0.96 1.77,-0.77 2.82,-1.46 0.31,-0.2 0.4,-0.54 0.29,-1.04 -0.24,-1.1 -1.1,-3.08 -1.61,-4.09 -0.31,-0.62 -0.59,-1.44 -1.48,-1.33zm4.83 6.98c-0.2,0.08 -0.31,0.15 -0.39,0.36 -0.34,0.83 0.81,0.85 1.86,1.87 0.76,0.74 1.36,1.93 1.54,3.02 0.09,0.55 0.03,0.91 0.05,1.42 0.01,0.41 0.42,0.75 0.86,0.59 0.43,-0.15 0.45,-0.54 0.45,-1.06 0.01,-0.48 -0.04,-0.96 -0.13,-1.41 -0.21,-1.08 -0.61,-1.79 -1.14,-2.62 -0.11,-0.17 -0.23,-0.27 -0.35,-0.42 -0.37,-0.5 -1.1,-1.09 -1.65,-1.41 -0.27,-0.16 -0.73,-0.48 -1.1,-0.34zm1.32 -4.98c-0.3,0.11 -0.57,0.51 -0.36,0.9 0.17,0.32 0.48,0.35 0.86,0.52 0.77,0.33 2.05,1.05 2.6,1.6 0.26,0.26 0.48,0.4 0.73,0.66 1.41,1.45 2.48,3.41 2.87,5.52 0.39,2.18 -0.04,3.5 0.02,3.88 0.05,0.35 0.41,0.64 0.83,0.5 0.38,-0.12 0.44,-0.44 0.5,-0.89 0.39,-2.83 -0.25,-5.52 -1.7,-7.88l-0.57 -0.82c-0.47,-0.56 -0.66,-0.89 -1.29,-1.48 -0.23,-0.22 -0.5,-0.46 -0.77,-0.65 -0.54,-0.4 -1.03,-0.78 -1.69,-1.13 -0.36,-0.19 -1.59,-0.89 -2.03,-0.73zm-0.53 2.45c-0.68,0.11 -0.76,0.96 -0.17,1.23 1.04,0.49 1.79,0.89 2.62,1.69l0.97 1.18c0.54,0.82 1.05,1.85 1.28,3.03 0.27,1.45 -0.01,2.72 0.11,2.99 0.09,0.21 0.37,0.43 0.73,0.37 0.59,-0.11 0.57,-0.95 0.59,-1.58 0.06,-1.84 -0.44,-3.61 -1.36,-5.1l-0.65 -0.96 -0.78 -0.83c-0.59,-0.57 -1.1,-0.98 -1.84,-1.4 -0.27,-0.16 -1.17,-0.68 -1.5,-0.62z"/>
  </g>
 </g>
</svg>
