<?xml version="1.0" encoding="UTF-8"?>
<!DOCTYPE svg PUBLIC "-//W3C//DTD SVG 1.1//EN" "http://www.w3.org/Graphics/SVG/1.1/DTD/svg11.dtd">
<!-- Creator: CorelDRAW 2018 (64 Bit) -->
<svg xmlns="http://www.w3.org/2000/svg" xml:space="preserve" width="40px" height="40px" version="1.1" style="shape-rendering:geometricPrecision; text-rendering:geometricPrecision; image-rendering:optimizeQuality; fill-rule:evenodd; clip-rule:evenodd"
viewBox="0 0 40 40"
 xmlns:xlink="http://www.w3.org/1999/xlink">
 <defs>
  <style type="text/css">
   <![CDATA[
    .fil0 {fill:#FFD823}
    .fil1 {fill:#1D3E69}
   ]]>
  </style>
 </defs>
 <g id="LOGO">
  <metadata id="CorelCorpID_0Corel-Layer"/>
  <circle class="fil0" cx="20" cy="20" r="20"/>
  <g id="_2230501855824">
   <circle class="fil1" cx="20" cy="20" r="18"/>
   <path class="fil0" d="M22.58 16.16c2.16,-0.84 2.98,2.41 1.18,2.98 -2.28,0.74 -3.04,-2.26 -1.18,-2.98zm-5.09 0c2.18,-0.84 2.95,2.42 1.2,2.99 -2.27,0.75 -3.09,-2.26 -1.2,-2.99zm-5.08 0c2.17,-0.82 2.94,2.41 1.2,2.99 -2.29,0.76 -3.09,-2.28 -1.2,-2.99zm-1.8 12.04c2.4,0.68 5.1,-1.52 5.56,-2.87 3.35,0.02 4.88,0.13 7.71,-1.31 7.61,-3.88 5.22,-12.96 -3.84,-14.37 -5.6,-0.87 -10.72,1.86 -12.06,5.78 -1.14,3.34 0.7,6.18 2.87,7.75 0.62,0.44 0.76,0.48 0.59,1.42 -0.12,0.66 -0.25,1.13 -0.49,1.73 -0.51,1.31 -0.61,1.28 -0.34,1.87zm8.06 -1.78c2.13,1.75 3.99,1.74 7.13,1.77 0.4,1.15 2.27,2.71 4.28,2.23 0.4,-0.95 -0.57,-1.3 -0.69,-3.61 4.36,-2.13 3.56,-7.97 0.01,-9.54 0.03,3.02 -1.37,4.83 -3.36,6.52 -2.04,1.74 -4.23,2.1 -7.37,2.63z"/>
  </g>
 </g>
</svg>
